<svg width="40" height="56" viewBox="0 0 40 56" fill="none" xmlns="http://www.w3.org/2000/svg">
<g clip-path="url(#clip0)">
<path d="M38.3672 18.2255C38.3672 8.20146 30.1629 0.0731812 20.037 0.0731812C9.91097 0.0731812 1.69998 8.20146 1.69998 18.2255C1.69998 26.101 6.76634 32.7992 13.8485 35.3135C10.388 37.3888 8.06988 41.1602 8.06988 45.4505C8.06988 49.661 10.3612 53.5855 14.0501 55.7007C15.3872 56.4656 17.1006 56.0133 17.8801 54.6896C18.6528 53.366 18.1959 51.6698 16.8587 50.8982C14.89 49.7741 13.6738 47.6855 13.6738 45.4439C13.6738 41.9717 16.5295 39.1448 20.0437 39.1448C23.5512 39.1448 26.4069 41.9717 26.4069 45.4439C26.4069 47.6788 25.1839 49.7674 23.2219 50.8982C21.8848 51.6632 21.4279 53.3593 22.2006 54.6896C22.718 55.5743 23.6587 56.0732 24.6262 56.0732C25.1033 56.0732 25.5871 55.9534 26.0306 55.7007C29.7195 53.5855 32.0108 49.6544 32.0108 45.4505C32.0108 41.1602 29.6926 37.3954 26.2322 35.3135C33.3076 32.7992 38.3672 26.101 38.3672 18.2255ZM26.0239 28.4756C25.5804 28.7284 25.0966 28.8481 24.6195 28.8481C23.6519 28.8481 22.7112 28.3492 22.1939 27.4646C21.4211 26.1409 21.878 24.4447 23.2152 23.6731C25.1772 22.5424 26.4001 20.4537 26.4001 18.2188C26.4001 14.7467 23.5444 11.9197 20.037 11.9197C16.5228 11.9197 13.6671 14.7467 13.6671 18.2188C13.6671 20.4537 14.89 22.5424 16.852 23.6731C18.1891 24.4381 18.6461 26.1409 17.8733 27.4646C17.1006 28.7882 15.3805 29.2405 14.0433 28.4756C10.3544 26.3604 8.06316 22.4293 8.06316 18.2255C8.06316 11.6936 13.4319 6.37892 20.0302 6.37892C26.6286 6.37892 31.9973 11.6936 31.9973 18.2255C32.004 22.4359 29.7128 26.3604 26.0239 28.4756Z" fill="#006666"/>
<path d="M38.3672 18.2255C38.3672 8.20146 30.1629 0.0731812 20.037 0.0731812C9.91097 0.0731812 1.69998 8.20146 1.69998 18.2255C1.69998 26.101 6.76634 32.7992 13.8485 35.3135C10.388 37.3888 8.06988 41.1602 8.06988 45.4505C8.06988 49.661 10.3612 53.5855 14.0501 55.7007C15.3872 56.4656 17.1006 56.0133 17.8801 54.6896C18.6528 53.366 18.1959 51.6698 16.8587 50.8982C14.89 49.7741 13.6738 47.6855 13.6738 45.4439C13.6738 41.9717 16.5295 39.1448 20.0437 39.1448C23.5512 39.1448 26.4069 41.9717 26.4069 45.4439C26.4069 47.6788 25.1839 49.7674 23.2219 50.8982C21.8848 51.6632 21.4279 53.3593 22.2006 54.6896C22.718 55.5743 23.6587 56.0732 24.6262 56.0732C25.1033 56.0732 25.5871 55.9534 26.0306 55.7007C29.7195 53.5855 32.0108 49.6544 32.0108 45.4505C32.0108 41.1602 29.6926 37.3954 26.2322 35.3135C33.3076 32.7992 38.3672 26.101 38.3672 18.2255ZM26.0239 28.4756C25.5804 28.7284 25.0966 28.8481 24.6195 28.8481C23.6519 28.8481 22.7112 28.3492 22.1939 27.4646C21.4211 26.1409 21.878 24.4447 23.2152 23.6731C25.1772 22.5424 26.4001 20.4537 26.4001 18.2188C26.4001 14.7467 23.5444 11.9197 20.037 11.9197C16.5228 11.9197 13.6671 14.7467 13.6671 18.2188C13.6671 20.4537 14.89 22.5424 16.852 23.6731C18.1891 24.4381 18.6461 26.1409 17.8733 27.4646C17.1006 28.7882 15.3805 29.2405 14.0433 28.4756C10.3544 26.3604 8.06316 22.4293 8.06316 18.2255C8.06316 11.6936 13.4319 6.37892 20.0302 6.37892C26.6286 6.37892 31.9973 11.6936 31.9973 18.2255C32.004 22.4359 29.7128 26.3604 26.0239 28.4756Z" fill="url(#paint0_linear)"/>
</g>
<defs>
<linearGradient id="paint0_linear" x1="15.596" y1="9.77882" x2="51.7642" y2="40.2777" gradientUnits="userSpaceOnUse">
<stop stop-color="#006666"/>
<stop offset="1" stop-color="#0F98D0"/>
</linearGradient>
<clipPath id="clip0">
<rect width="40" height="56" fill="white"/>
</clipPath>
</defs>
</svg>
